<?xml version="1.0" standalone="no"?>
<!DOCTYPE svg PUBLIC "-//W3C//DTD SVG 20010904//EN"
 "http://www.w3.org/TR/2001/REC-SVG-20010904/DTD/svg10.dtd">
<svg version="1.0" xmlns="http://www.w3.org/2000/svg"
 width="512.000000pt" height="512.000000pt" viewBox="0 0 512.000000 512.000000"
 preserveAspectRatio="xMidYMid meet">
<metadata>
Created by potrace 1.14, written by Peter Selinger 2001-2017
</metadata>
<g transform="translate(0.000000,512.000000) scale(0.100000,-0.100000)"
fill="#000000" stroke="none">
<path d="M2905 4110 c-3 -5 -13 -10 -21 -10 -25 0 -95 -36 -235 -120 -74 -44
-141 -85 -149 -90 -8 -5 -29 -17 -47 -26 -18 -9 -37 -22 -44 -30 -6 -8 -16
-14 -21 -14 -5 0 -84 -45 -174 -100 -90 -55 -167 -100 -170 -100 -3 0 -20 -10
-37 -22 -18 -13 -43 -29 -57 -37 -58 -32 -67 -37 -100 -61 -82 -59 -162 -162
-195 -252 -9 -23 -22 -52 -28 -63 -9 -15 -13 -185 -15 -624 -3 -562 -5 -607
-22 -640 -22 -45 -41 -60 -125 -105 -11 -6 -34 -21 -52 -33 -17 -13 -34 -23
-37 -23 -3 0 -91 -52 -195 -115 -105 -63 -195 -115 -201 -115 -5 0 -10 -3 -10
-8 0 -4 -9 -12 -19 -17 -65 -34 -97 -52 -196 -113 -142 -87 -142 -87 -47 -243
37 -63 71 -122 75 -131 9 -26 86 -24 120 2 14 11 29 20 33 20 4 0 22 11 40 25
18 14 35 25 38 25 3 0 80 45 170 100 90 55 167 100 171 100 3 0 21 10 38 23
18 13 49 32 70 42 20 11 37 23 37 27 0 5 5 8 12 8 6 0 68 34 137 76 154 94
242 179 295 285 20 39 36 82 36 95 0 12 5 26 10 29 6 4 10 214 10 599 l0 592
25 50 c23 44 37 56 141 119 64 39 133 79 153 90 20 11 50 29 66 40 17 12 41
26 55 33 14 6 32 16 40 22 59 39 364 220 371 220 4 0 10 -328 11 -730 2 -567
6 -732 16 -742 6 -6 12 -18 12 -25 0 -7 15 -43 33 -80 22 -46 56 -91 110 -145
43 -43 82 -78 88 -78 5 0 80 -43 166 -96 87 -53 164 -99 173 -102 8 -3 29 -15
45 -27 17 -12 47 -30 68 -40 20 -11 37 -23 37 -27 0 -5 5 -8 10 -8 8 0 305
-174 360 -210 8 -6 23 -13 33 -16 9 -4 17 -10 17 -15 0 -5 6 -9 13 -9 6 0 26
-8 42 -17 23 -13 54 -17 125 -17 86 -1 99 2 135 26 50 32 96 82 119 128 16 33
17 95 14 925 l-3 890 -34 64 c-36 67 -173 221 -197 221 -8 0 -14 4 -14 9 0 5
-8 11 -17 15 -10 3 -31 14 -48 24 -16 11 -46 28 -65 39 -37 21 -345 206 -370
223 -8 5 -31 18 -50 29 -19 10 -117 69 -218 130 -101 61 -199 113 -218 117
-19 3 -37 10 -40 15 -7 13 -291 11 -299 -1z m401 -496 c26 -15 126 -74 223
-133 97 -59 183 -110 191 -114 21 -11 40 -22 199 -118 131 -79 141 -87 165
-136 l26 -52 0 -671 0 -671 -22 7 c-13 3 -30 12 -38 19 -8 7 -32 22 -52 34
-74 41 -105 59 -246 145 -79 47 -147 86 -153 86 -5 0 -9 4 -9 9 0 5 -8 12 -17
15 -21 8 -36 16 -162 93 -52 32 -108 75 -125 96 l-31 39 -3 689 c-1 379 0 689
2 689 3 0 26 -12 52 -26z"/>
</g>
</svg>
